<?xml version="1.0" encoding="UTF-8" standalone="no"?>
<!DOCTYPE svg PUBLIC "-//W3C//DTD SVG 1.1//EN"
 "http://www.w3.org/Graphics/SVG/1.1/DTD/svg11.dtd">
<!-- Generated by graphviz version 2.28.0 (20121218.1323)
 -->
<!-- Title: controllers_diagram Pages: 1 -->
<svg width="1770pt" height="1562pt"
 viewBox="0.00 0.00 1769.70 1561.58" xmlns="http://www.w3.org/2000/svg" xmlns:xlink="http://www.w3.org/1999/xlink">
<g id="graph1" class="graph" transform="scale(1 1) rotate(0) translate(4 1557.58)">
<title>controllers_diagram</title>
<polygon fill="white" stroke="white" points="-4,5 -4,-1557.58 1766.7,-1557.58 1766.7,5 -4,5"/>
<!-- _diagram_info -->
<g id="node1" class="node"><title>_diagram_info</title>
<text text-anchor="start" x="1543.52" y="-69" font-family="Times,serif" font-size="13.00">Controllers diagram</text>
<text text-anchor="start" x="1543.52" y="-53.4" font-family="Times,serif" font-size="13.00">Date: Dec 18 2012 &#45; 11:17</text>
<text text-anchor="start" x="1543.52" y="-37.8" font-family="Times,serif" font-size="13.00">Migration version: 20121214124242</text>
<text text-anchor="start" x="1543.52" y="-22.2" font-family="Times,serif" font-size="13.00">Generated by RailRoady 1.1.0</text>
<text text-anchor="start" x="1543.52" y="-6.6" font-family="Times,serif" font-size="13.00">http://railroady.prestonlee.com</text>
</g>
<!-- AddressesController -->
<g id="node2" class="node"><title>AddressesController</title>
<ellipse fill="none" stroke="black" cx="133.372" cy="-539.345" rx="90.1353" ry="18"/>
<text text-anchor="middle" x="133.372" y="-533.745" font-family="Times,serif" font-size="14.00">AddressesController</text>
</g>
<!-- Admin::AddressesController -->
<g id="node3" class="node"><title>Admin::AddressesController</title>
<ellipse fill="none" stroke="black" cx="1445.03" cy="-708.818" rx="122.422" ry="18"/>
<text text-anchor="middle" x="1445.03" y="-703.218" font-family="Times,serif" font-size="14.00">Admin::AddressesController</text>
</g>
<!-- Admin::AreasController -->
<g id="node4" class="node"><title>Admin::AreasController</title>
<ellipse fill="none" stroke="black" cx="727.201" cy="-18" rx="105.163" ry="18"/>
<text text-anchor="middle" x="727.201" y="-12.4" font-family="Times,serif" font-size="14.00">Admin::AreasController</text>
</g>
<!-- Admin::CartsController -->
<g id="node5" class="node"><title>Admin::CartsController</title>
<ellipse fill="none" stroke="black" cx="556.013" cy="-1455.35" rx="102.959" ry="18"/>
<text text-anchor="middle" x="556.013" y="-1449.75" font-family="Times,serif" font-size="14.00">Admin::CartsController</text>
</g>
<!-- Admin::CategoriesController -->
<g id="node6" class="node"><title>Admin::CategoriesController</title>
<ellipse fill="none" stroke="black" cx="1263.23" cy="-918.616" rx="124.327" ry="18"/>
<text text-anchor="middle" x="1263.23" y="-913.016" font-family="Times,serif" font-size="14.00">Admin::CategoriesController</text>
</g>
<!-- Admin::CitiesController -->
<g id="node7" class="node"><title>Admin::CitiesController</title>
<ellipse fill="none" stroke="black" cx="371.788" cy="-818.33" rx="105.184" ry="18"/>
<text text-anchor="middle" x="371.788" y="-812.73" font-family="Times,serif" font-size="14.00">Admin::CitiesController</text>
</g>
<!-- Admin::ClientsController -->
<g id="node8" class="node"><title>Admin::ClientsController</title>
<ellipse fill="none" stroke="black" cx="313.636" cy="-228.483" rx="109.927" ry="18"/>
<text text-anchor="middle" x="313.636" y="-222.883" font-family="Times,serif" font-size="14.00">Admin::ClientsController</text>
</g>
<!-- Admin::CouponsController -->
<g id="node9" class="node"><title>Admin::CouponsController</title>
<ellipse fill="none" stroke="black" cx="1493.01" cy="-386.662" rx="116.895" ry="18"/>
<text text-anchor="middle" x="1493.01" y="-381.062" font-family="Times,serif" font-size="14.00">Admin::CouponsController</text>
</g>
<!-- Admin::DashboardController -->
<g id="node10" class="node"><title>Admin::DashboardController</title>
<ellipse fill="none" stroke="black" cx="587.958" cy="-153.803" rx="124.134" ry="18"/>
<text text-anchor="middle" x="587.958" y="-148.203" font-family="Times,serif" font-size="14.00">Admin::DashboardController</text>
</g>
<!-- Admin::ImportLogsController -->
<g id="node11" class="node"><title>Admin::ImportLogsController</title>
<ellipse fill="none" stroke="black" cx="1181.87" cy="-119.456" rx="128.277" ry="18"/>
<text text-anchor="middle" x="1181.87" y="-113.856" font-family="Times,serif" font-size="14.00">Admin::ImportLogsController</text>
</g>
<!-- Admin::ReasonsController -->
<g id="node12" class="node"><title>Admin::ReasonsController</title>
<ellipse fill="none" stroke="black" cx="875.073" cy="-299.422" rx="115.162" ry="18"/>
<text text-anchor="middle" x="875.073" y="-293.822" font-family="Times,serif" font-size="14.00">Admin::ReasonsController</text>
</g>
<!-- Admin::ReportsController -->
<g id="node13" class="node"><title>Admin::ReportsController</title>
<ellipse fill="none" stroke="black" cx="112.481" cy="-812.1" rx="112.444" ry="18"/>
<text text-anchor="middle" x="112.481" y="-806.5" font-family="Times,serif" font-size="14.00">Admin::ReportsController</text>
</g>
<!-- Admin::ServicesController -->
<g id="node14" class="node"><title>Admin::ServicesController</title>
<ellipse fill="none" stroke="black" cx="1646.38" cy="-868.203" rx="115.454" ry="18"/>
<text text-anchor="middle" x="1646.38" y="-862.603" font-family="Times,serif" font-size="14.00">Admin::ServicesController</text>
</g>
<!-- Admin::SettingsController -->
<g id="node15" class="node"><title>Admin::SettingsController</title>
<ellipse fill="none" stroke="black" cx="1557.09" cy="-1078.33" rx="114.064" ry="18"/>
<text text-anchor="middle" x="1557.09" y="-1072.73" font-family="Times,serif" font-size="14.00">Admin::SettingsController</text>
</g>
<!-- Admin::StoreProductsController -->
<g id="node16" class="node"><title>Admin::StoreProductsController</title>
<ellipse fill="none" stroke="black" cx="976.36" cy="-1535.58" rx="137.157" ry="18"/>
<text text-anchor="middle" x="976.36" y="-1529.98" font-family="Times,serif" font-size="14.00">Admin::StoreProductsController</text>
</g>
<!-- Admin::StoresController -->
<g id="node17" class="node"><title>Admin::StoresController</title>
<ellipse fill="none" stroke="black" cx="1162.27" cy="-444.821" rx="107.096" ry="18"/>
<text text-anchor="middle" x="1162.27" y="-439.221" font-family="Times,serif" font-size="14.00">Admin::StoresController</text>
</g>
<!-- Admin::StreetsController -->
<g id="node18" class="node"><title>Admin::StreetsController</title>
<ellipse fill="none" stroke="black" cx="1378.43" cy="-206.15" rx="109.307" ry="18"/>
<text text-anchor="middle" x="1378.43" y="-200.55" font-family="Times,serif" font-size="14.00">Admin::StreetsController</text>
</g>
<!-- Admin::TaxpayerIdentificationsController -->
<g id="node19" class="node"><title>Admin::TaxpayerIdentificationsController</title>
<ellipse fill="none" stroke="black" cx="310.418" cy="-1333.49" rx="173.433" ry="18"/>
<text text-anchor="middle" x="310.418" y="-1327.89" font-family="Times,serif" font-size="14.00">Admin::TaxpayerIdentificationsController</text>
</g>
<!-- Admin::UserCartsController -->
<g id="node20" class="node"><title>Admin::UserCartsController</title>
<ellipse fill="none" stroke="black" cx="166.04" cy="-1057.82" rx="121.309" ry="18"/>
<text text-anchor="middle" x="166.04" y="-1052.22" font-family="Times,serif" font-size="14.00">Admin::UserCartsController</text>
</g>
<!-- Admin::UsersController -->
<g id="node21" class="node"><title>Admin::UsersController</title>
<ellipse fill="none" stroke="black" cx="418.19" cy="-1182.82" rx="104.371" ry="18"/>
<text text-anchor="middle" x="418.19" y="-1177.22" font-family="Times,serif" font-size="14.00">Admin::UsersController</text>
</g>
<!-- ApplicationController -->
<g id="node22" class="node"><title>ApplicationController</title>
<ellipse fill="none" stroke="black" cx="878.588" cy="-777.871" rx="95.984" ry="18"/>
<text text-anchor="middle" x="878.588" y="-772.271" font-family="Times,serif" font-size="14.00">ApplicationController</text>
</g>
<!-- ApplicationController&#45;&gt;AddressesController -->
<g id="edge2" class="edge"><title>ApplicationController&#45;&gt;AddressesController</title>
<path fill="none" stroke="black" d="M829.98,-762.312C694.894,-719.075 316.076,-597.824 181.531,-554.76"/>
</g>
<!-- ApplicationController&#45;&gt;Admin::AddressesController -->
<g id="edge4" class="edge"><title>ApplicationController&#45;&gt;Admin::AddressesController</title>
<path fill="none" stroke="black" d="M959.445,-768.014C1062.61,-755.437 1240.76,-733.72 1350.22,-720.377"/>
</g>
<!-- ApplicationController&#45;&gt;Admin::AreasController -->
<g id="edge6" class="edge"><title>ApplicationController&#45;&gt;Admin::AreasController</title>
<path fill="none" stroke="black" d="M873.103,-759.809C854.205,-696.914 791.171,-481.423 758.367,-299.322 740.638,-200.907 731.401,-81.189 728.359,-36.2248"/>
</g>
<!-- ApplicationController&#45;&gt;Admin::CartsController -->
<g id="edge8" class="edge"><title>ApplicationController&#45;&gt;Admin::CartsController</title>
<path fill="none" stroke="black" d="M869.96,-795.992C824.222,-892.051 610.471,-1340.97 564.667,-1437.17"/>
</g>
<!-- ApplicationController&#45;&gt;Admin::CategoriesController -->
<g id="edge10" class="edge"><title>ApplicationController&#45;&gt;Admin::CategoriesController</title>
<path fill="none" stroke="black" d="M922.711,-794.016C996.118,-820.877 1142.61,-874.481 1217.24,-901.788"/>
</g>
<!-- ApplicationController&#45;&gt;Admin::CitiesController -->
<g id="edge12" class="edge"><title>ApplicationController&#45;&gt;Admin::CitiesController</title>
<path fill="none" stroke="black" d="M790.021,-784.941C699.791,-792.144 560.307,-803.28 467.559,-810.684"/>
</g>
<!-- ApplicationController&#45;&gt;Admin::ClientsController -->
<g id="edge14" class="edge"><title>ApplicationController&#45;&gt;Admin::ClientsController</title>
<path fill="none" stroke="black" d="M855.751,-760.129C786.389,-705.713 573.584,-534.807 420.635,-369.316 382.704,-328.274 344.625,-274.407 325.781,-246.695"/>
</g>
<!-- ApplicationController&#45;&gt;Admin::CouponsController -->
<g id="edge16" class="edge"><title>ApplicationController&#45;&gt;Admin::CouponsController</title>
<path fill="none" stroke="black" d="M905.782,-760.556C1007.27,-695.936 1363.31,-469.247 1465.43,-404.22"/>
</g>
<!-- ApplicationController&#45;&gt;Admin::DashboardController -->
<g id="edge18" class="edge"><title>ApplicationController&#45;&gt;Admin::DashboardController</title>
<path fill="none" stroke="black" d="M870.204,-759.867C827.95,-669.135 638.709,-262.781 596.376,-171.88"/>
</g>
<!-- ApplicationController&#45;&gt;Admin::ImportLogsController -->
<g id="edge20" class="edge"><title>ApplicationController&#45;&gt;Admin::ImportLogsController</title>
<path fill="none" stroke="black" d="M886.858,-759.918C930.101,-666.038 1129.9,-232.289 1173.47,-137.702"/>
</g>
<!-- ApplicationController&#45;&gt;Admin::ReasonsController -->
<g id="edge22" class="edge"><title>ApplicationController&#45;&gt;Admin::ReasonsController</title>
<path fill="none" stroke="black" d="M878.455,-759.699C877.898,-683.912 875.764,-393.433 875.207,-317.612"/>
</g>
<!-- ApplicationController&#45;&gt;Admin::ReportsController -->
<g id="edge24" class="edge"><title>ApplicationController&#45;&gt;Admin::ReportsController</title>
<path fill="none" stroke="black" d="M783.91,-781.486C682.232,-785.435 515.934,-792.089 372.542,-798.73 322.301,-801.057 266.613,-803.886 219.702,-806.342"/>
</g>
<!-- ApplicationController&#45;&gt;Admin::ServicesController -->
<g id="edge26" class="edge"><title>ApplicationController&#45;&gt;Admin::ServicesController</title>
<path fill="none" stroke="black" d="M960.028,-787.452C1103.98,-804.389 1402.46,-839.506 1553.92,-857.325"/>
</g>
<!-- ApplicationController&#45;&gt;Admin::SettingsController -->
<g id="edge28" class="edge"><title>ApplicationController&#45;&gt;Admin::SettingsController</title>
<path fill="none" stroke="black" d="M907.432,-795.215C954.559,-823.17 1051.44,-879.047 1137.41,-918.561 1268.28,-978.714 1428.84,-1035.26 1508.07,-1062.07"/>
</g>
<!-- ApplicationController&#45;&gt;Admin::StoreProductsController -->
<g id="edge30" class="edge"><title>ApplicationController&#45;&gt;Admin::StoreProductsController</title>
<path fill="none" stroke="black" d="M886.179,-795.965C911.651,-858.079 993.288,-1068.89 1007.59,-1252.27 1015.43,-1352.66 991.069,-1472.47 980.75,-1517.39"/>
</g>
<!-- ApplicationController&#45;&gt;Admin::StoresController -->
<g id="edge32" class="edge"><title>ApplicationController&#45;&gt;Admin::StoresController</title>
<path fill="none" stroke="black" d="M893.84,-759.965C943.096,-702.136 1097.58,-520.77 1146.94,-462.816"/>
</g>
<!-- ApplicationController&#45;&gt;Admin::StreetsController -->
<g id="edge34" class="edge"><title>ApplicationController&#45;&gt;Admin::StreetsController</title>
<path fill="none" stroke="black" d="M906.498,-760.593C976.371,-716.124 1161.09,-590.915 1270.93,-444.938 1325.87,-371.918 1360.81,-266.356 1373.29,-224.368"/>
</g>
<!-- ApplicationController&#45;&gt;Admin::TaxpayerIdentificationsController -->
<g id="edge36" class="edge"><title>ApplicationController&#45;&gt;Admin::TaxpayerIdentificationsController</title>
<path fill="none" stroke="black" d="M849.944,-795.282C787.558,-834.693 638.702,-937.072 560.006,-1061.73 530.036,-1109.2 557.361,-1137.35 524.699,-1183.01 479.342,-1246.42 398.588,-1292.4 350.219,-1315.85"/>
</g>
<!-- ApplicationController&#45;&gt;Admin::UserCartsController -->
<g id="edge38" class="edge"><title>ApplicationController&#45;&gt;Admin::UserCartsController</title>
<path fill="none" stroke="black" d="M837.199,-794.132C711.855,-843.378 337.19,-990.579 209.344,-1040.81"/>
</g>
<!-- ApplicationController&#45;&gt;Admin::UsersController -->
<g id="edge40" class="edge"><title>ApplicationController&#45;&gt;Admin::UsersController</title>
<path fill="none" stroke="black" d="M858.51,-795.531C782.704,-862.208 514.36,-1098.23 438.375,-1165.07"/>
</g>
<!-- BuilderController -->
<g id="node23" class="node"><title>BuilderController</title>
<ellipse fill="none" stroke="black" cx="339.4" cy="-533.877" rx="79.5437" ry="18"/>
<text text-anchor="middle" x="339.4" y="-528.277" font-family="Times,serif" font-size="14.00">BuilderController</text>
</g>
<!-- ApplicationController&#45;&gt;BuilderController -->
<g id="edge42" class="edge"><title>ApplicationController&#45;&gt;BuilderController</title>
<path fill="none" stroke="black" d="M841.528,-761.1C742.551,-716.311 472.928,-594.301 375.3,-550.122"/>
</g>
<!-- CartsController -->
<g id="node24" class="node"><title>CartsController</title>
<ellipse fill="none" stroke="black" cx="1216.99" cy="-1269.98" rx="71.1714" ry="18"/>
<text text-anchor="middle" x="1216.99" y="-1264.38" font-family="Times,serif" font-size="14.00">CartsController</text>
</g>
<!-- ApplicationController&#45;&gt;CartsController -->
<g id="edge44" class="edge"><title>ApplicationController&#45;&gt;CartsController</title>
<path fill="none" stroke="black" d="M891.034,-795.969C944.217,-873.307 1152.09,-1175.59 1204.79,-1252.24"/>
</g>
<!-- CategoriesController -->
<g id="node25" class="node"><title>CategoriesController</title>
<ellipse fill="none" stroke="black" cx="1241.92" cy="-1479.42" rx="92.0399" ry="18"/>
<text text-anchor="middle" x="1241.92" y="-1473.82" font-family="Times,serif" font-size="14.00">CategoriesController</text>
</g>
<!-- ApplicationController&#45;&gt;CategoriesController -->
<g id="edge46" class="edge"><title>ApplicationController&#45;&gt;CategoriesController</title>
<path fill="none" stroke="black" d="M887.935,-795.917C938.807,-894.144 1181.92,-1363.56 1232.64,-1461.49"/>
</g>
<!-- ClientsController -->
<g id="node26" class="node"><title>ClientsController</title>
<ellipse fill="none" stroke="black" cx="753.162" cy="-1520.96" rx="78.1393" ry="18"/>
<text text-anchor="middle" x="753.162" y="-1515.36" font-family="Times,serif" font-size="14.00">ClientsController</text>
</g>
<!-- ApplicationController&#45;&gt;ClientsController -->
<g id="edge48" class="edge"><title>ApplicationController&#45;&gt;ClientsController</title>
<path fill="none" stroke="black" d="M875.55,-795.871C858.359,-897.717 773.449,-1400.77 756.216,-1502.86"/>
</g>
<!-- HomeController -->
<g id="node27" class="node"><title>HomeController</title>
<ellipse fill="none" stroke="black" cx="983.85" cy="-28.1449" rx="73.9958" ry="18"/>
<text text-anchor="middle" x="983.85" y="-22.5449" font-family="Times,serif" font-size="14.00">HomeController</text>
</g>
<!-- ApplicationController&#45;&gt;HomeController -->
<g id="edge50" class="edge"><title>ApplicationController&#45;&gt;HomeController</title>
<path fill="none" stroke="black" d="M884.791,-759.48C905.67,-696.38 973.132,-482.482 991.779,-299.522 1001.46,-204.567 990.863,-90.0318 986.012,-46.3065"/>
</g>
<!-- PaymentsController -->
<g id="node28" class="node"><title>PaymentsController</title>
<ellipse fill="none" stroke="black" cx="1462.72" cy="-1271" rx="87.9248" ry="18"/>
<text text-anchor="middle" x="1462.72" y="-1265.4" font-family="Times,serif" font-size="14.00">PaymentsController</text>
</g>
<!-- ApplicationController&#45;&gt;PaymentsController -->
<g id="edge52" class="edge"><title>ApplicationController&#45;&gt;PaymentsController</title>
<path fill="none" stroke="black" d="M899.723,-795.713C991.048,-872.811 1351.25,-1176.9 1441.92,-1253.44"/>
</g>
<!-- PhonesController -->
<g id="node29" class="node"><title>PhonesController</title>
<ellipse fill="none" stroke="black" cx="640.235" cy="-1061.8" rx="78.4453" ry="18"/>
<text text-anchor="middle" x="640.235" y="-1056.2" font-family="Times,serif" font-size="14.00">PhonesController</text>
</g>
<!-- ApplicationController&#45;&gt;PhonesController -->
<g id="edge54" class="edge"><title>ApplicationController&#45;&gt;PhonesController</title>
<path fill="none" stroke="black" d="M863.316,-796.064C820.162,-847.469 697.694,-993.354 655.075,-1044.12"/>
</g>
<!-- SessionsController -->
<g id="node30" class="node"><title>SessionsController</title>
<ellipse fill="none" stroke="black" cx="506.236" cy="-369.363" rx="84.0017" ry="18"/>
<text text-anchor="middle" x="506.236" y="-363.763" font-family="Times,serif" font-size="14.00">SessionsController</text>
</g>
<!-- ApplicationController&#45;&gt;SessionsController -->
<g id="edge56" class="edge"><title>ApplicationController&#45;&gt;SessionsController</title>
<path fill="none" stroke="black" d="M862.349,-760.055C801.04,-692.793 584.014,-454.693 522.56,-387.273"/>
</g>
<!-- TaxNumbersController -->
<g id="node31" class="node"><title>TaxNumbersController</title>
<ellipse fill="none" stroke="black" cx="1623.97" cy="-572.311" rx="100.208" ry="18"/>
<text text-anchor="middle" x="1623.97" y="-566.711" font-family="Times,serif" font-size="14.00">TaxNumbersController</text>
</g>
<!-- ApplicationController&#45;&gt;TaxNumbersController -->
<g id="edge58" class="edge"><title>ApplicationController&#45;&gt;TaxNumbersController</title>
<path fill="none" stroke="black" d="M932.795,-762.922C1070.23,-725.02 1431.18,-625.479 1569.21,-587.412"/>
</g>
<!-- UsersController -->
<g id="node32" class="node"><title>UsersController</title>
<ellipse fill="none" stroke="black" cx="933.274" cy="-1252.09" rx="72.5828" ry="18"/>
<text text-anchor="middle" x="933.274" y="-1246.49" font-family="Times,serif" font-size="14.00">UsersController</text>
</g>
<!-- ApplicationController&#45;&gt;UsersController -->
<g id="edge60" class="edge"><title>ApplicationController&#45;&gt;UsersController</title>
<path fill="none" stroke="black" d="M880.665,-795.882C889.328,-870.999 922.529,-1158.91 931.195,-1234.06"/>
</g>
</g>
</svg>
