<?xml version="1.0" encoding="UTF-8" standalone="no"?>
<!DOCTYPE svg PUBLIC "-//W3C//DTD SVG 1.1//EN"
 "http://www.w3.org/Graphics/SVG/1.1/DTD/svg11.dtd">
<!-- Generated by graphviz version 2.28.0 (20121218.1323)
 -->
<!-- Title: models_diagram Pages: 1 -->
<svg width="1705pt" height="454pt"
 viewBox="0.00 0.00 1705.00 454.00" xmlns="http://www.w3.org/2000/svg" xmlns:xlink="http://www.w3.org/1999/xlink">
<g id="graph1" class="graph" transform="scale(1 1) rotate(0) translate(4 450)">
<title>models_diagram</title>
<polygon fill="white" stroke="white" points="-4,5 -4,-450 1702,-450 1702,5 -4,5"/>
<!-- _diagram_info -->
<g id="node1" class="node"><title>_diagram_info</title>
<text text-anchor="start" x="7.31226" y="-429" font-family="Times,serif" font-size="13.00">Models diagram</text>
<text text-anchor="start" x="7.31226" y="-413.4" font-family="Times,serif" font-size="13.00">Date: Dec 18 2012 &#45; 11:16</text>
<text text-anchor="start" x="7.31226" y="-397.8" font-family="Times,serif" font-size="13.00">Migration version: 20121214124242</text>
<text text-anchor="start" x="7.31226" y="-382.2" font-family="Times,serif" font-size="13.00">Generated by RailRoady 1.1.0</text>
<text text-anchor="start" x="7.31226" y="-366.6" font-family="Times,serif" font-size="13.00">http://railroady.prestonlee.com</text>
</g>
<!-- Address -->
<g id="node2" class="node"><title>Address</title>
<ellipse fill="none" stroke="black" cx="652" cy="-18" rx="42.5278" ry="18"/>
<text text-anchor="middle" x="652" y="-12.4" font-family="Times,serif" font-size="14.00">Address</text>
</g>
<!-- Area -->
<g id="node3" class="node"><title>Area</title>
<ellipse fill="none" stroke="black" cx="625" cy="-162" rx="29.2021" ry="18"/>
<text text-anchor="middle" x="625" y="-156.4" font-family="Times,serif" font-size="14.00">Area</text>
</g>
<!-- Street -->
<g id="node21" class="node"><title>Street</title>
<ellipse fill="none" stroke="black" cx="621" cy="-90" rx="33.3419" ry="18"/>
<text text-anchor="middle" x="621" y="-84.4" font-family="Times,serif" font-size="14.00">Street</text>
</g>
<!-- Area&#45;&gt;Street -->
<g id="edge2" class="edge"><title>Area&#45;&gt;Street</title>
<path fill="none" stroke="#700443" d="M623.551,-135.64C623.232,-130.063 622.893,-124.132 622.57,-118.476"/>
<ellipse fill="none" stroke="#700443" cx="623.783" cy="-139.703" rx="4" ry="4"/>
<polygon fill="#700443" stroke="#700443" points="622.548,-118.088 626.47,-107.848 622.263,-113.096 621.977,-108.104 621.977,-108.104 621.977,-108.104 622.263,-113.096 617.485,-108.361 622.548,-118.088 622.548,-118.088"/>
</g>
<!-- Cart -->
<g id="node4" class="node"><title>Cart</title>
<ellipse fill="none" stroke="black" cx="361" cy="-306" rx="27.493" ry="18"/>
<text text-anchor="middle" x="361" y="-300.4" font-family="Times,serif" font-size="14.00">Cart</text>
</g>
<!-- CartCoupon -->
<g id="node5" class="node"><title>CartCoupon</title>
<ellipse fill="none" stroke="black" cx="267" cy="-162" rx="58.3697" ry="18"/>
<text text-anchor="middle" x="267" y="-156.4" font-family="Times,serif" font-size="14.00">CartCoupon</text>
</g>
<!-- Cart&#45;&gt;CartCoupon -->
<g id="edge4" class="edge"><title>Cart&#45;&gt;CartCoupon</title>
<path fill="none" stroke="#9dc98d" d="M332.054,-291.35C316.086,-282.359 297.265,-269.083 286,-252 273.931,-233.697 269.363,-209.086 267.711,-190.384"/>
<ellipse fill="none" stroke="#9dc98d" cx="335.633" cy="-293.28" rx="4.00002" ry="4.00002"/>
<polygon fill="#9dc98d" stroke="#9dc98d" points="267.694,-190.126 271.531,-179.853 267.367,-185.137 267.04,-180.147 267.04,-180.147 267.04,-180.147 267.367,-185.137 262.55,-180.441 267.694,-190.126 267.694,-190.126"/>
</g>
<!-- CartProduct -->
<g id="node6" class="node"><title>CartProduct</title>
<ellipse fill="none" stroke="black" cx="401" cy="-162" rx="57.5553" ry="18"/>
<text text-anchor="middle" x="401" y="-156.4" font-family="Times,serif" font-size="14.00">CartProduct</text>
</g>
<!-- Cart&#45;&gt;CartProduct -->
<g id="edge8" class="edge"><title>Cart&#45;&gt;CartProduct</title>
<path fill="none" stroke="#bce936" d="M374.335,-281.654C378.978,-272.637 383.816,-262.078 387,-252 393.391,-231.773 396.94,-207.999 398.864,-190.113"/>
<ellipse fill="none" stroke="#bce936" cx="372.401" cy="-285.29" rx="4.00002" ry="4.00002"/>
<polygon fill="#bce936" stroke="#bce936" points="398.872,-190.031 404.32,-180.514 399.356,-185.054 399.841,-180.078 399.841,-180.078 399.841,-180.078 399.356,-185.054 395.362,-179.642 398.872,-190.031 398.872,-190.031"/>
</g>
<!-- Coupon -->
<g id="node10" class="node"><title>Coupon</title>
<ellipse fill="none" stroke="black" cx="337" cy="-234" rx="41.4294" ry="18"/>
<text text-anchor="middle" x="337" y="-228.4" font-family="Times,serif" font-size="14.00">Coupon</text>
</g>
<!-- Cart&#45;&gt;Coupon -->
<g id="edge6" class="edge"><title>Cart&#45;&gt;Coupon</title>
<path fill="none" stroke="#3557d4" d="M351.94,-278.574C350.054,-273.073 348.064,-267.271 346.174,-261.758"/>
<polygon fill="#3557d4" stroke="#3557d4" points="351.947,-278.595 350.934,-289.514 353.569,-283.325 355.19,-288.055 355.19,-288.055 355.19,-288.055 353.569,-283.325 359.447,-286.595 351.947,-278.595 351.947,-278.595"/>
<polygon fill="#3557d4" stroke="#3557d4" points="346.166,-261.735 347.18,-250.816 344.545,-257.005 342.923,-252.275 342.923,-252.275 342.923,-252.275 344.545,-257.005 338.666,-253.735 346.166,-261.735 346.166,-261.735"/>
</g>
<!-- Product -->
<g id="node16" class="node"><title>Product</title>
<ellipse fill="none" stroke="black" cx="477" cy="-234" rx="41.1166" ry="18"/>
<text text-anchor="middle" x="477" y="-228.4" font-family="Times,serif" font-size="14.00">Product</text>
</g>
<!-- Cart&#45;&gt;Product -->
<g id="edge10" class="edge"><title>Cart&#45;&gt;Product</title>
<path fill="none" stroke="#f4627a" d="M389.042,-288.078C405.968,-277.864 427.585,-264.819 445.153,-254.218"/>
<polygon fill="#f4627a" stroke="#f4627a" points="388.978,-288.117 378.091,-289.431 384.697,-290.7 380.416,-293.284 380.416,-293.284 380.416,-293.284 384.697,-290.7 382.741,-297.136 388.978,-288.117 388.978,-288.117"/>
<polygon fill="#f4627a" stroke="#f4627a" points="445.363,-254.091 456.25,-252.777 449.644,-251.508 453.925,-248.925 453.925,-248.925 453.925,-248.925 449.644,-251.508 451.6,-245.072 445.363,-254.091 445.363,-254.091"/>
</g>
<!-- UserCart -->
<g id="node25" class="node"><title>UserCart</title>
<ellipse fill="none" stroke="black" cx="193" cy="-234" rx="45.3464" ry="18"/>
<text text-anchor="middle" x="193" y="-228.4" font-family="Times,serif" font-size="14.00">UserCart</text>
</g>
<!-- Cart&#45;&gt;UserCart -->
<g id="edge12" class="edge"><title>Cart&#45;&gt;UserCart</title>
<path fill="none" stroke="#42e5f0" d="M330.593,-292.33C303.131,-280.888 262.547,-263.978 232.566,-251.486"/>
<ellipse fill="none" stroke="#42e5f0" cx="334.65" cy="-294.021" rx="4.00001" ry="4.00001"/>
<polygon fill="#42e5f0" stroke="#42e5f0" points="232.466,-251.444 224.966,-243.444 227.851,-249.521 223.235,-247.598 223.235,-247.598 223.235,-247.598 227.851,-249.521 221.504,-251.752 232.466,-251.444 232.466,-251.444"/>
</g>
<!-- Category -->
<g id="node7" class="node"><title>Category</title>
<ellipse fill="none" stroke="black" cx="477" cy="-306" rx="46.1519" ry="18"/>
<text text-anchor="middle" x="477" y="-300.4" font-family="Times,serif" font-size="14.00">Category</text>
</g>
<!-- Category&#45;&gt;Product -->
<g id="edge14" class="edge"><title>Category&#45;&gt;Product</title>
<path fill="none" stroke="#196406" d="M477,-279.64C477,-274.063 477,-268.132 477,-262.476"/>
<ellipse fill="none" stroke="#196406" cx="477" cy="-283.697" rx="4" ry="4"/>
<polygon fill="#196406" stroke="#196406" points="477,-262.104 481.5,-252.104 477,-257.104 477,-252.104 477,-252.104 477,-252.104 477,-257.104 472.5,-252.104 477,-262.104 477,-262.104"/>
</g>
<!-- City -->
<g id="node8" class="node"><title>City</title>
<ellipse fill="none" stroke="black" cx="614" cy="-234" rx="27.5071" ry="18"/>
<text text-anchor="middle" x="614" y="-228.4" font-family="Times,serif" font-size="14.00">City</text>
</g>
<!-- City&#45;&gt;Area -->
<g id="edge18" class="edge"><title>City&#45;&gt;Area</title>
<path fill="none" stroke="#a7ad33" d="M617.931,-207.987C618.832,-202.249 619.795,-196.121 620.711,-190.293"/>
<ellipse fill="none" stroke="#a7ad33" cx="617.284" cy="-212.103" rx="4.00001" ry="4.00001"/>
<polygon fill="#a7ad33" stroke="#a7ad33" points="620.733,-190.154 626.731,-180.974 621.509,-185.215 622.285,-180.275 622.285,-180.275 622.285,-180.275 621.509,-185.215 617.84,-179.577 620.733,-190.154 620.733,-190.154"/>
</g>
<!-- Store -->
<g id="node19" class="node"><title>Store</title>
<ellipse fill="none" stroke="black" cx="546" cy="-162" rx="31.1319" ry="18"/>
<text text-anchor="middle" x="546" y="-156.4" font-family="Times,serif" font-size="14.00">Store</text>
</g>
<!-- City&#45;&gt;Store -->
<g id="edge16" class="edge"><title>City&#45;&gt;Store</title>
<path fill="none" stroke="#583732" d="M594.204,-212.621C585.878,-204.051 576.167,-194.054 567.651,-185.288"/>
<ellipse fill="none" stroke="#583732" cx="597.123" cy="-215.627" rx="4.00002" ry="4.00002"/>
<polygon fill="#583732" stroke="#583732" points="567.509,-185.141 563.769,-174.833 564.025,-181.555 560.541,-177.968 560.541,-177.968 560.541,-177.968 564.025,-181.555 557.313,-181.104 567.509,-185.141 567.509,-185.141"/>
</g>
<!-- Client -->
<g id="node9" class="node"><title>Client</title>
<ellipse fill="none" stroke="black" cx="714" cy="-403" rx="34.4613" ry="18"/>
<text text-anchor="middle" x="714" y="-397.4" font-family="Times,serif" font-size="14.00">Client</text>
</g>
<!-- Client&#45;&gt;Address -->
<g id="edge22" class="edge"><title>Client&#45;&gt;Address</title>
<path fill="none" stroke="#162107" d="M706.416,-377.085C697.238,-344.68 683,-286.161 683,-235 683,-235 683,-235 683,-161 683,-120.098 670.572,-74.0627 661.454,-45.7928"/>
<ellipse fill="none" stroke="#162107" cx="707.63" cy="-381.281" rx="4.00001" ry="4.00001"/>
<polygon fill="#162107" stroke="#162107" points="661.427,-45.7134 662.544,-34.8045 659.85,-40.9686 658.273,-36.2238 658.273,-36.2238 658.273,-36.2238 659.85,-40.9686 654.003,-37.6431 661.427,-45.7134 661.427,-45.7134"/>
</g>
<!-- Client&#45;&gt;Cart -->
<g id="edge24" class="edge"><title>Client&#45;&gt;Cart</title>
<path fill="none" stroke="#447e3f" d="M676.297,-392.067C620.629,-377.371 513.189,-348.885 422,-324 413.386,-321.649 404.098,-319.079 395.43,-316.665"/>
<ellipse fill="none" stroke="#447e3f" cx="680.259" cy="-393.113" rx="4.00001" ry="4.00001"/>
<polygon fill="#447e3f" stroke="#447e3f" points="395.25,-316.615 386.828,-309.591 390.434,-315.27 385.618,-313.926 385.618,-313.926 385.618,-313.926 390.434,-315.27 384.408,-318.26 395.25,-316.615 395.25,-316.615"/>
</g>
<!-- Phone -->
<g id="node15" class="node"><title>Phone</title>
<ellipse fill="none" stroke="black" cx="746" cy="-306" rx="35.2688" ry="18"/>
<text text-anchor="middle" x="746" y="-300.4" font-family="Times,serif" font-size="14.00">Phone</text>
</g>
<!-- Client&#45;&gt;Phone -->
<g id="edge20" class="edge"><title>Client&#45;&gt;Phone</title>
<path fill="none" stroke="#76e5ba" d="M722.348,-377.218C726.858,-363.828 732.429,-347.288 737.032,-333.625"/>
<ellipse fill="none" stroke="#76e5ba" cx="720.998" cy="-381.225" rx="4.00001" ry="4.00001"/>
<polygon fill="#76e5ba" stroke="#76e5ba" points="737.136,-333.314 744.593,-325.274 738.732,-328.575 740.329,-323.837 740.329,-323.837 740.329,-323.837 738.732,-328.575 736.064,-322.401 737.136,-333.314 737.136,-333.314"/>
</g>
<!-- TaxNumber -->
<g id="node22" class="node"><title>TaxNumber</title>
<ellipse fill="none" stroke="black" cx="856" cy="-306" rx="57.0302" ry="18"/>
<text text-anchor="middle" x="856" y="-300.4" font-family="Times,serif" font-size="14.00">TaxNumber</text>
</g>
<!-- Client&#45;&gt;TaxNumber -->
<g id="edge26" class="edge"><title>Client&#45;&gt;TaxNumber</title>
<path fill="none" stroke="#65a962" d="M741.125,-383.853C764.895,-367.951 799.455,-344.829 824.454,-328.105"/>
<ellipse fill="none" stroke="#65a962" cx="737.67" cy="-386.165" rx="4.00002" ry="4.00002"/>
<polygon fill="#65a962" stroke="#65a962" points="824.553,-328.039 835.367,-326.218 828.709,-325.258 832.864,-322.478 832.864,-322.478 832.864,-322.478 828.709,-325.258 830.362,-318.738 824.553,-328.039 824.553,-328.039"/>
</g>
<!-- Coupon&#45;&gt;CartCoupon -->
<g id="edge28" class="edge"><title>Coupon&#45;&gt;CartCoupon</title>
<path fill="none" stroke="#028499" d="M315.281,-211.281C307.539,-203.539 298.78,-194.78 290.868,-186.868"/>
<ellipse fill="none" stroke="#028499" cx="318.287" cy="-214.287" rx="4.00002" ry="4.00002"/>
<polygon fill="#028499" stroke="#028499" points="290.378,-186.378 286.489,-176.125 286.843,-182.843 283.307,-179.307 283.307,-179.307 283.307,-179.307 286.843,-182.843 280.125,-182.489 290.378,-186.378 290.378,-186.378"/>
</g>
<!-- ImportEvent -->
<g id="node11" class="node"><title>ImportEvent</title>
<ellipse fill="none" stroke="black" cx="991" cy="-306" rx="59.2684" ry="18"/>
<text text-anchor="middle" x="991" y="-300.4" font-family="Times,serif" font-size="14.00">ImportEvent</text>
</g>
<!-- ImportLog -->
<g id="node12" class="node"><title>ImportLog</title>
<ellipse fill="none" stroke="black" cx="991" cy="-403" rx="52.3144" ry="18"/>
<text text-anchor="middle" x="991" y="-397.4" font-family="Times,serif" font-size="14.00">ImportLog</text>
</g>
<!-- ImportLog&#45;&gt;ImportEvent -->
<g id="edge30" class="edge"><title>ImportLog&#45;&gt;ImportEvent</title>
<path fill="none" stroke="#fdb72b" d="M991,-376.414C991,-363.518 991,-347.862 991,-334.685"/>
<ellipse fill="none" stroke="#fdb72b" cx="991" cy="-380.576" rx="4" ry="4"/>
<polygon fill="#fdb72b" stroke="#fdb72b" points="991,-334.314 995.5,-324.314 991,-329.314 991,-324.314 991,-324.314 991,-324.314 991,-329.314 986.5,-324.314 991,-334.314 991,-334.314"/>
</g>
<!-- Kapiqua -->
<g id="node13" class="node"><title>Kapiqua</title>
<ellipse fill="none" stroke="black" cx="1189" cy="-306" rx="43.1305" ry="18"/>
<text text-anchor="middle" x="1189" y="-300.4" font-family="Times,serif" font-size="14.00">Kapiqua</text>
</g>
<!-- Option -->
<g id="node14" class="node"><title>Option</title>
<polygon fill="none" stroke="black" points="1389.17,-421 1334.83,-421 1334.83,-385 1389.17,-385 1389.17,-421"/>
<text text-anchor="middle" x="1362" y="-397.4" font-family="Times,serif" font-size="14.00">Option</text>
</g>
<!-- Product&#45;&gt;CartProduct -->
<g id="edge34" class="edge"><title>Product&#45;&gt;CartProduct</title>
<path fill="none" stroke="#b04ab3" d="M454.066,-211.877C445.266,-203.772 435.181,-194.482 426.181,-186.193"/>
<ellipse fill="none" stroke="#b04ab3" cx="457.191" cy="-214.755" rx="4.00002" ry="4.00002"/>
<polygon fill="#b04ab3" stroke="#b04ab3" points="425.967,-185.996 421.661,-175.912 422.29,-182.609 418.612,-179.222 418.612,-179.222 418.612,-179.222 422.29,-182.609 415.563,-182.532 425.967,-185.996 425.967,-185.996"/>
</g>
<!-- Product&#45;&gt;Store -->
<g id="edge38" class="edge"><title>Product&#45;&gt;Store</title>
<path fill="none" stroke="#23a8e3" d="M499.764,-209.906C507.43,-202.129 515.973,-193.462 523.61,-185.714"/>
<polygon fill="#23a8e3" stroke="#23a8e3" points="499.677,-209.994 489.452,-213.957 496.167,-213.555 492.657,-217.116 492.657,-217.116 492.657,-217.116 496.167,-213.555 495.862,-220.275 499.677,-209.994 499.677,-209.994"/>
<polygon fill="#23a8e3" stroke="#23a8e3" points="523.859,-185.462 534.084,-181.499 527.369,-181.901 530.879,-178.34 530.879,-178.34 530.879,-178.34 527.369,-181.901 527.674,-175.181 523.859,-185.462 523.859,-185.462"/>
</g>
<!-- StoreProduct -->
<g id="node20" class="node"><title>StoreProduct</title>
<ellipse fill="none" stroke="black" cx="498" cy="-90" rx="61.1931" ry="18"/>
<text text-anchor="middle" x="498" y="-84.4" font-family="Times,serif" font-size="14.00">StoreProduct</text>
</g>
<!-- Product&#45;&gt;StoreProduct -->
<g id="edge36" class="edge"><title>Product&#45;&gt;StoreProduct</title>
<path fill="none" stroke="#5ef11b" d="M480.708,-207.929C484.435,-182.725 490.163,-143.994 493.993,-118.095"/>
<ellipse fill="none" stroke="#5ef11b" cx="480.118" cy="-211.915" rx="4.00001" ry="4.00001"/>
<polygon fill="#5ef11b" stroke="#5ef11b" points="493.995,-118.082 499.91,-108.848 494.726,-113.135 495.458,-108.189 495.458,-108.189 495.458,-108.189 494.726,-113.135 491.006,-107.531 493.995,-118.082 493.995,-118.082"/>
</g>
<!-- Reason -->
<g id="node17" class="node"><title>Reason</title>
<ellipse fill="none" stroke="black" cx="361" cy="-403" rx="39.1979" ry="18"/>
<text text-anchor="middle" x="361" y="-397.4" font-family="Times,serif" font-size="14.00">Reason</text>
</g>
<!-- Reason&#45;&gt;Cart -->
<g id="edge40" class="edge"><title>Reason&#45;&gt;Cart</title>
<path fill="none" stroke="#3cf5c0" d="M361,-376.414C361,-363.518 361,-347.862 361,-334.685"/>
<ellipse fill="none" stroke="#3cf5c0" cx="361" cy="-380.576" rx="4" ry="4"/>
<polygon fill="#3cf5c0" stroke="#3cf5c0" points="361,-334.314 365.5,-324.314 361,-329.314 361,-324.314 361,-324.314 361,-324.314 361,-329.314 356.5,-324.314 361,-334.314 361,-334.314"/>
</g>
<!-- Report -->
<g id="node18" class="node"><title>Report</title>
<ellipse fill="none" stroke="black" cx="1445" cy="-403" rx="36.9811" ry="18"/>
<text text-anchor="middle" x="1445" y="-397.4" font-family="Times,serif" font-size="14.00">Report</text>
</g>
<!-- Store&#45;&gt;Cart -->
<g id="edge42" class="edge"><title>Store&#45;&gt;Cart</title>
<path fill="none" stroke="#c47ef4" d="M547.082,-188.217C546.554,-207.918 542.615,-234.762 527,-252 522.447,-257.026 442.805,-281.021 395.516,-294.941"/>
<ellipse fill="none" stroke="#c47ef4" cx="547.101" cy="-183.994" rx="4" ry="4"/>
<polygon fill="#c47ef4" stroke="#c47ef4" points="395.267,-295.014 384.404,-293.513 390.469,-296.422 385.672,-297.831 385.672,-297.831 385.672,-297.831 390.469,-296.422 386.939,-302.149 395.267,-295.014 395.267,-295.014"/>
</g>
<!-- Store&#45;&gt;StoreProduct -->
<g id="edge44" class="edge"><title>Store&#45;&gt;StoreProduct</title>
<path fill="none" stroke="#3df4fc" d="M530.577,-138.509C525.769,-131.496 520.432,-123.713 515.492,-116.51"/>
<ellipse fill="none" stroke="#3df4fc" cx="532.846" cy="-141.817" rx="4.00002" ry="4.00002"/>
<polygon fill="#3df4fc" stroke="#3df4fc" points="515.174,-116.045 513.229,-105.252 512.346,-111.921 509.518,-107.797 509.518,-107.797 509.518,-107.797 512.346,-111.921 505.807,-110.342 515.174,-116.045 515.174,-116.045"/>
</g>
<!-- Store&#45;&gt;Street -->
<g id="edge46" class="edge"><title>Store&#45;&gt;Street</title>
<path fill="none" stroke="#8006ea" d="M567.873,-140.585C577.187,-131.892 588.068,-121.736 597.548,-112.888"/>
<ellipse fill="none" stroke="#8006ea" cx="564.83" cy="-143.426" rx="4.00002" ry="4.00002"/>
<polygon fill="#8006ea" stroke="#8006ea" points="597.807,-112.647 608.188,-109.114 601.462,-109.235 605.117,-105.824 605.117,-105.824 605.117,-105.824 601.462,-109.235 602.047,-102.534 597.807,-112.647 597.807,-112.647"/>
</g>
<!-- Street&#45;&gt;Address -->
<g id="edge48" class="edge"><title>Street&#45;&gt;Address</title>
<path fill="none" stroke="#a584c1" d="M631.601,-65.0625C634.448,-58.6325 637.542,-51.6473 640.439,-45.106"/>
<ellipse fill="none" stroke="#a584c1" cx="629.966" cy="-68.7536" rx="4.00002" ry="4.00002"/>
<polygon fill="#a584c1" stroke="#a584c1" points="640.442,-45.0997 648.605,-37.7784 642.466,-40.528 644.491,-35.9562 644.491,-35.9562 644.491,-35.9562 642.466,-40.528 640.376,-34.134 640.442,-45.0997 640.442,-45.0997"/>
</g>
<!-- TaxpayerIdentification -->
<g id="node23" class="node"><title>TaxpayerIdentification</title>
<ellipse fill="none" stroke="black" cx="1599" cy="-403" rx="97.9688" ry="18"/>
<text text-anchor="middle" x="1599" y="-397.4" font-family="Times,serif" font-size="14.00">TaxpayerIdentification</text>
</g>
<!-- User -->
<g id="node24" class="node"><title>User</title>
<ellipse fill="none" stroke="black" cx="254" cy="-403" rx="28.9087" ry="18"/>
<text text-anchor="middle" x="254" y="-397.4" font-family="Times,serif" font-size="14.00">User</text>
</g>
<!-- User&#45;&gt;Cart -->
<g id="edge50" class="edge"><title>User&#45;&gt;Cart</title>
<path fill="none" stroke="#d24a7d" d="M276.325,-382.178C294.218,-366.293 319.255,-344.063 337.461,-327.9"/>
<ellipse fill="none" stroke="#d24a7d" cx="273.242" cy="-384.916" rx="4.00002" ry="4.00002"/>
<polygon fill="#d24a7d" stroke="#d24a7d" points="337.816,-327.584 348.282,-324.309 341.555,-324.264 345.294,-320.944 345.294,-320.944 345.294,-320.944 341.555,-324.264 342.307,-317.579 337.816,-327.584 337.816,-327.584"/>
</g>
<!-- User&#45;&gt;UserCart -->
<g id="edge52" class="edge"><title>User&#45;&gt;UserCart</title>
<path fill="none" stroke="#a08c05" d="M245.123,-377.698C233.835,-346.794 214.41,-293.616 202.729,-261.636"/>
<ellipse fill="none" stroke="#a08c05" cx="246.556" cy="-381.62" rx="4.00001" ry="4.00001"/>
<polygon fill="#a08c05" stroke="#a08c05" points="202.66,-261.446 203.456,-250.509 200.945,-256.75 199.229,-252.053 199.229,-252.053 199.229,-252.053 200.945,-256.75 195.002,-253.597 202.66,-261.446 202.66,-261.446"/>
</g>
<!-- RailsSettings::CachedSettings -->
<g id="node41" class="node"><title>RailsSettings::CachedSettings</title>
<ellipse fill="none" stroke="black" cx="1189" cy="-403" rx="127.179" ry="18"/>
<text text-anchor="middle" x="1189" y="-397.4" font-family="Times,serif" font-size="14.00">RailsSettings::CachedSettings</text>
</g>
<!-- RailsSettings::CachedSettings&#45;&gt;Kapiqua -->
<g id="edge32" class="edge"><title>RailsSettings::CachedSettings&#45;&gt;Kapiqua</title>
<path fill="none" stroke="black" d="M1189,-384.576C1189,-367.434 1189,-341.417 1189,-324.314"/>
</g>
</g>
</svg>
